Coordinates
version=1
nRows=19
nColumns=36
inDegrees=yes

Units are S.I. units (second, meters, Newtons, ...)
If the header above contains a line with 'inDegrees', this indicates whether rotational values are in degrees (yes) or radians (no).

endheader
time	pelvis_tilt	pelvis_list	pelvis_rotation	pelvis_tx	pelvis_ty	pelvis_tz	hip_flexion_r	hip_adduction_r	hip_rotation_r	knee_angle_r	knee_angle_r_beta	ankle_angle_r	subtalar_angle_r	mtp_angle_r	hip_flexion_l	hip_adduction_l	hip_rotation_l	knee_angle_l	knee_angle_l_beta	ankle_angle_l	subtalar_angle_l	mtp_angle_l	lumbar_extension	lumbar_bending	lumbar_rotation	arm_flex_r	arm_add_r	arm_rot_r	elbow_flex_r	pro_sup_r	arm_flex_l	arm_add_l	arm_rot_l	elbow_flex_l	pro_sup_l
      0.00000000	      1.19411212	     -0.30279105	      1.53732798	     -0.90620476	      1.23822407	     -0.07598837	     -2.71139519	     -0.40323447	      4.04994714	      3.30049293	      0.05760447	      3.55110697	     -7.85827007	     -5.68980573	     -3.04269155	     -2.04872010	      3.15916035	      2.07597861	      0.03623266	      8.39791297	      1.32487030	     -5.68980573	     -8.28905695	      2.19965509	     -1.27842496	      8.29282891	    -12.42735219	     19.85431864	     27.68432475	     73.99681382	      1.95327750	    -11.39489659	     15.22416749	     34.11681045	     70.82518796
      0.00416670	     -0.62357930	     -0.04034541	      1.77709309	     -0.90392763	      1.23776357	     -0.07570690	     -1.23499131	     -0.54343126	      4.58894774	      2.54879211	      0.04448481	      5.08690808	     -5.72737825	     -6.06186265	     -1.20929531	     -1.40072950	      4.70903539	      1.74979427	      0.03053967	      6.67280962	      1.61466005	     -6.06186265	     -5.09963850	      1.83255328	     -1.33337293	      7.31938435	    -12.42759347	     19.40873308	     28.12737966	     72.43886504	      1.59405933	    -11.23520026	     15.21602521	     34.04192550	     69.75636892
      0.00833330	     -1.97275805	      0.55411609	      1.54288235	     -0.90366449	      1.23477919	     -0.07459855	     -0.11973523	     -1.13840579	      4.14153370	      1.82728555	      0.03189215	      5.29962623	     -4.66832612	     -6.36435406	      0.12821257	     -0.75157478	      4.50365516	      1.63817198	      0.02859149	      5.71970770	      1.46249117	     -6.36435406	     -3.19165431	      0.76988640	     -0.68811198	      6.68731368	    -12.22661113	     19.08079052	     28.26403062	     73.35910137	      2.14411725	    -11.87279145	     17.78225545	     33.15108010	     71.39666853
      0.01250000	     -1.78188120	      0.93731995	      1.39934150	     -0.90391756	      1.23598142	     -0.07439609	     -0.52039755	     -1.58461072	      4.00107508	      1.41339098	      0.02466833	      5.53310993	     -3.87453533	     -7.00323782	     -0.38437985	     -0.34077668	      4.83070414	      1.06648290	      0.01861364	      5.15935613	      1.03608797	     -7.00323782	     -3.53235924	      0.14827061	     -0.12778608	      5.85213344	    -11.78166586	     14.78923674	     29.43777273	     78.21633546	      2.47526114	    -11.81462434	     16.75753162	     33.12778218	     75.39801920
      0.01666670	     -1.84394664	      1.06014091	      1.27877165	     -0.90360129	      1.23356723	     -0.07411537	     -0.57978294	     -1.71195182	      4.09992486	      1.17953632	      0.02058679	      5.57513651	     -3.75850346	     -7.37930044	     -0.46848652	     -0.18856364	      4.97103185	      0.79645567	      0.01390077	      5.03529846	      0.63232992	     -7.37930044	     -3.48294983	     -0.04747438	      0.15795990	      5.46730363	    -11.43330923	     12.84712402	     30.03834353	     79.42429122	      2.45329736	    -11.58483107	     15.90228473	     33.19446959	     76.22537696
      0.02083330	     -1.73181912	      1.16441799	      1.26527179	     -0.90284767	      1.23453759	     -0.07455000	     -0.79984864	     -1.82544865	      4.33905374	      1.04084510	      0.01816617	      5.82014173	     -3.45831826	     -7.46601685	     -0.65153096	     -0.04148866	      5.23977085	      0.66577856	      0.01162003	      4.93132183	     -0.03035790	     -7.46601685	     -3.54992514	     -0.16813179	      0.38647227	      5.25768739	    -11.27931580	     12.98248343	     30.47153853	     72.07462429	      2.50426418	    -11.41226901	     16.11411697	     33.48898527	     69.87378452
      0.02500000	     -1.81570393	      1.23351764	      1.20492372	     -0.90242064	      1.23678858	     -0.07504626	     -0.78642123	     -1.95560802	      4.34876190	      0.93578957	      0.01633261	      5.71794823	     -3.47263102	     -7.49434231	     -0.61259757	      0.07531496	      5.34543720	      0.61655233	      0.01076087	      4.88432182	     -0.19189557	     -7.49434231	     -3.38161823	     -0.21128896	      0.52111437	      4.97508093	    -10.73167245	      9.83056343	     30.57554259	     80.57808730	      2.30908316	    -10.81312907	     13.19433694	     33.53522622	     77.24094480
      0.02916670	     -1.75086715	      1.27971930	      1.15144075	     -0.90155371	      1.23547657	     -0.07526935	     -0.93226099	     -2.03502487	      4.50252095	      0.83401449	      0.01455630	      5.75933142	     -3.40869009	     -7.49818327	     -0.74627370	      0.15863519	      5.46644311	      0.57624582	      0.01005739	      4.85694421	     -0.49031435	     -7.49818327	     -3.39007351	     -0.24970273	      0.61497822	      4.88619852	    -10.46698159	      9.04670713	     30.67837229	     80.54292102	      2.19724285	    -10.44900361	     11.83216550	     33.77915998	     77.42777462
      0.03333330	     -1.68966029	      1.30276541	      1.12764722	     -0.90186171	      1.23647177	     -0.07385183	     -1.06044543	     -2.05974978	      4.63676825	      0.74860089	      0.01306555	      5.67688312	     -3.43277746	     -7.49940735	     -0.85384999	      0.17137137	      5.68250127	      0.54497690	      0.00951164	      4.71213568	     -0.83183784	     -7.49940735	     -3.41796572	     -0.30145629	      0.67833307	      4.88587470	    -10.17191490	      8.55421889	     30.72276839	     80.30256639	      2.14499225	    -10.16301824	     10.73591224	     33.96591821	     77.23438627
      0.03750000	     -1.68288428	      1.30060529	      1.10922118	     -0.90269899	      1.23803001	     -0.07560408	     -1.08244183	     -2.07139066	      4.63650949	      0.75050229	      0.01309874	      5.67231695	     -3.43140663	     -7.49940739	     -0.81723310	      0.17144289	      5.68590290	      0.56441133	      0.00985084	      4.71041144	     -0.82984210	     -7.49940739	     -3.41387991	     -0.30041844	      0.68210641	      4.89279455	    -10.16209878	      8.55533239	     30.72594570	     80.30250783	      2.15010094	    -10.15825269	     10.73569596	     33.96857056	     77.23426488
      0.04166670	     -1.52240779	      1.23491610	      1.16989196	     -0.90380333	      1.23496022	     -0.07575244	     -1.27625520	     -2.01759877	      4.60135695	      0.63796795	      0.01113464	      5.19530286	     -3.40553390	     -7.49943448	     -0.97064772	      0.09236489	      5.79514593	      0.48323912	      0.00843411	      4.54905290	     -0.73178969	     -7.49943448	     -3.70892707	     -0.16705621	      0.85589732	      5.07741524	    -10.03875723	      8.33370337	     30.85060094	     79.55036357	      2.52011474	     -9.77352409	     10.39926201	     34.16360641	     76.57022783
      0.04583330	     -1.47784226	      1.19963972	      1.18718513	     -0.90357625	      1.23770704	     -0.07529826	     -1.31557360	     -1.98400269	      4.57601114	      0.60140586	      0.01049651	      4.98955990	     -3.42939794	     -7.49954160	     -0.99090417	      0.05444316	      6.24634068	      0.45571995	      0.00795381	      4.13737276	     -1.47564803	     -7.49954160	     -3.81699500	     -0.10072206	      0.74529786	      5.22405859	     -9.91103461	      8.38010086	     30.91678263	     78.48225414	      2.64289454	     -9.61909883	     10.26032546	     34.11393188	     75.69169320
      0.05000000	     -1.49124508	      1.18746161	      1.12692789	     -0.90362316	      1.23847968	     -0.07573062	     -1.28230837	     -1.98752112	      4.37136505	      0.57490384	      0.01003396	      5.09331068	     -2.84393809	     -7.49962253	     -0.98287889	      0.06166270	      6.24767335	      0.44211002	      0.00771628	      4.11544159	     -1.44437546	     -7.49962253	     -3.82853868	     -0.05707113	      0.75411124	      5.38249880	     -9.75776120	      8.32673637	     30.88703652	     76.83158408	      2.72354406	     -9.40379624	     10.17118037	     34.08718247	     74.27484284
      0.05416670	     -1.48528548	      1.16645153	      1.02971134	     -0.90379383	      1.23943207	     -0.07531270	     -1.25369495	     -1.97142496	      4.63122248	      0.53877515	      0.00940340	      4.76738211	     -3.23551192	     -7.49970603	     -1.00355685	      0.04107412	      6.23168672	      0.42426247	      0.00740478	      3.87018213	     -1.68861434	     -7.49970603	     -3.92140034	     -0.02969498	      0.77626476	      5.53164264	     -9.83538209	      9.11611418	     31.15890290	     76.73689156	      2.75224566	     -9.47141314	     10.74746562	     34.40891160	     74.15700195
      0.05833330	     -1.38992161	      1.13025221	      1.01473074	     -0.90284541	      1.23950271	     -0.07438667	     -1.36893206	     -1.92631276	      4.54315003	      0.50760734	      0.00885942	      4.71008805	     -2.89625571	     -7.49975794	     -1.12635152	     -0.00876849	      6.16977884	      0.41361714	      0.00721898	      3.90478683	     -1.42850467	     -7.49975794	     -4.13351090	      0.00024261	      0.80626671	      5.68769592	     -9.71043407	      8.96031441	     31.21757569	     75.68563836	      2.89577036	     -9.31116445	     10.59413610	     34.38388923	     73.25934694
      0.06250000	     -1.30450232	      1.07674590	      0.98950121	     -0.90463088	      1.23833527	     -0.07395021	     -1.42716652	     -1.86074312	      4.44990309	      0.48792221	      0.00851585	      4.62672698	     -2.61440643	     -7.49979545	     -1.18953291	     -0.08113199	      6.30361732	      0.40846725	      0.00712910	      3.69401362	     -1.64382482	     -7.49979545	     -4.33246880	      0.06557450	      0.81713627	      5.90550134	     -9.60321889	      9.11371597	     31.31704269	     75.12043811	      3.08553727	     -9.22178569	     10.76368993	     34.42970101	     72.76926935
      0.06666670	     -1.32671954	      1.03273837	      0.83030842	     -0.90578208	      1.23915360	     -0.07377261	     -1.31961214	     -1.78484179	      4.96164367	      0.47439380	      0.00827973	      4.17476760	     -3.18615375	     -7.49981692	     -1.12519476	     -0.15571656	      6.00509670	      0.39800235	      0.00694645	      3.62729985	     -1.33407631	     -7.49981692	     -4.45810018	      0.05850549	      1.00628764	      6.06935824	     -9.53427803	      9.27684420	     31.50421802	     74.49123717	      3.23295971	     -9.15659802	     10.88589716	     34.54484129	     72.19632354
      0.07083330	     -1.13118954	      0.98495423	      0.89088055	     -0.90498697	      1.23822105	     -0.07404881	     -1.51266933	     -1.72861794	      4.75099750	      0.46421582	      0.00810209	      4.11773501	     -2.90425603	     -7.49989663	     -1.28623151	     -0.21977104	      6.24653232	      0.39514190	      0.00689653	      3.50340651	     -1.49956849	     -7.49989663	     -4.85411008	      0.11427074	      0.89448086	      6.31310629	     -9.53365747	      9.26220957	     31.67663029	     78.33191193	      3.35393007	     -9.18816200	     10.84982163	     34.75503316	     75.27983021
      0.07500000	     -1.03923505	      0.95382609	      0.85699808	     -0.90579005	      1.23806506	     -0.07469220	     -1.56354686	     -1.70707985	      4.64262031	      0.45881105	      0.00800776	      4.05055589	     -2.76035038	     -7.49990710	     -1.34020456	     -0.26338204	      6.29764835	      0.38978047	      0.00680295	      3.38488468	     -1.57437237	     -7.49990710	     -5.08950723	      0.14259189	      0.94560140	      6.48106552	     -9.47391063	      9.28358548	     31.85640204	     77.27069975	      3.54195878	     -9.07829168	     10.94762803	     34.85077718	     74.38688139
